<?xml version="1.0" encoding="UTF-8"?>
<!DOCTYPE svg PUBLIC "-//W3C//DTD SVG 1.1//EN" "http://www.w3.org/Graphics/SVG/1.1/DTD/svg11.dtd">
<svg xmlns="http://www.w3.org/2000/svg" xml:space="preserve" width="999px" height="221px" version="1.1" style="shape-rendering:geometricPrecision; text-rendering:geometricPrecision; image-rendering:optimizeQuality; fill-rule:evenodd; clip-rule:evenodd"
viewBox="0 0 247.23 54.72"
 xmlns:xlink="http://www.w3.org/1999/xlink">
 <defs>
  <style type="text/css">
   <![CDATA[
    .fil0 {fill:#E31E24}
    .fil1 {fill:#0088CE}
    .fil2 {fill:#E42E24;fill-rule:nonzero}
   ]]>
  </style>
 </defs>
 <g id="Слой_x0020_1">
  <metadata id="CorelCorpID_0Corel-Layer"/>
  <g id="_2458256280112">
   <g>
    <polygon class="fil0" points="51.14,0.39 46.97,1.17 42.28,2.02 37.44,3.03 32.42,4.2 29.84,4.9 27.33,5.6 24.82,6.38 22.39,7.23 19.97,8.16 17.64,9.1 15.38,10.11 13.2,11.2 11.2,12.36 9.28,13.61 7.52,14.93 5.93,16.33 4.51,17.81 3.26,19.37 2.18,21.08 1.34,22.79 0.76,24.66 0.42,26.53 0.34,28.55 0.5,30.73 1,32.98 1.84,35.31 2.93,37.72 4.34,40.29 4.43,38.81 4.51,37.57 4.85,36.48 5.35,35.55 5.85,34.77 6.6,34.15 7.36,33.68 8.28,33.29 9.28,33.06 10.28,32.98 11.45,32.98 12.62,33.06 13.87,33.21 15.13,33.45 16.38,33.76 17.72,34.07 20.31,34.93 22.82,35.93 25.24,36.95 27.33,37.88 30.67,39.44 32.01,40.06 "/>
    <polygon class="fil0" points="4.01,40.29 4.68,40.13 3.93,38.81 3.26,37.57 2.67,36.4 2.18,35.16 1.67,33.99 1.34,32.82 1.09,31.73 0.92,30.64 0.76,29.63 0.67,28.55 0.67,27.53 0.76,26.6 0.92,25.67 1.09,24.73 1.34,23.8 1.67,22.87 2.09,22.01 2.5,21.23 3.01,20.38 3.51,19.6 4.1,18.82 4.77,18.04 5.43,17.27 6.18,16.56 6.93,15.87 7.77,15.25 8.61,14.54 9.53,13.92 11.36,12.68 13.46,11.51 15.54,10.42 17.8,9.41 20.14,8.48 22.48,7.54 24.99,6.69 27.41,5.91 30,5.21 32.51,4.51 37.52,3.35 42.37,2.33 46.97,1.48 51.23,0.7 51.14,0.07 46.88,0.85 42.2,1.71 37.36,2.72 32.34,3.89 29.75,4.59 27.24,5.29 24.73,6.14 22.23,6.92 19.89,7.86 17.47,8.79 15.21,9.88 13.03,10.97 11.03,12.13 9.11,13.38 8.19,14.08 7.27,14.7 6.44,15.4 5.68,16.1 4.93,16.88 4.18,17.66 3.59,18.44 2.93,19.21 2.42,20.07 1.92,20.92 1.42,21.78 1,22.71 0.67,23.57 0.42,24.58 0.25,25.51 0.08,26.53 0,27.53 0,28.62 0.08,29.63 0.17,30.73 0.42,31.89 0.67,33.06 1.09,34.22 1.5,35.39 2.01,36.64 2.59,37.88 3.34,39.13 4.1,40.44 4.77,40.29 "/>
    <polygon class="fil0" points="31.67,39.9 31.84,39.74 30.84,39.2 27.49,37.65 25.32,36.64 22.98,35.63 20.39,34.61 17.8,33.76 16.46,33.45 15.21,33.13 13.87,32.9 12.71,32.67 11.45,32.59 10.28,32.67 9.19,32.75 8.19,32.98 7.69,33.21 7.19,33.37 6.77,33.6 6.35,33.91 6.01,34.22 5.6,34.54 5.26,34.93 5.02,35.39 4.77,35.86 4.51,36.32 4.34,36.87 4.18,37.49 4.1,38.11 4.01,38.81 4.01,39.51 4.01,40.29 4.77,40.29 4.68,39.51 4.77,38.81 4.77,38.19 4.93,37.65 5.02,37.1 5.18,36.56 5.35,36.09 5.6,35.7 5.85,35.31 6.18,35 6.44,34.69 6.77,34.38 7.19,34.15 7.52,33.91 7.94,33.76 8.35,33.6 9.36,33.37 10.36,33.29 11.45,33.29 12.62,33.37 13.79,33.52 15.05,33.76 16.3,34.07 17.55,34.38 20.14,35.24 22.73,36.25 25.07,37.18 27.24,38.19 30.51,39.74 32.26,40.29 32.34,40.13 "/>
    <polygon class="fil0" points="51.14,0.07 50.89,0.31 31.67,39.9 32.34,40.13 51.48,0.54 51.14,0.07 51.48,0.54 51.73,0 "/>
    <polygon class="fil0" points="52.98,0.7 51.39,4.28 50.14,7.62 49.14,10.73 48.3,13.69 47.72,16.33 47.38,18.9 47.22,21.23 47.22,23.33 47.38,25.36 47.72,27.14 48.13,28.78 48.72,30.25 49.48,31.66 50.23,32.9 51.06,33.99 52.06,34.93 52.98,35.78 54.07,36.56 55.07,37.18 56.16,37.72 57.25,38.19 58.25,38.58 59.25,38.89 60.25,39.13 61.92,39.51 63.35,39.67 64.26,39.74 64.6,39.74 35.01,39.9 "/>
    <polygon class="fil0" points="64.6,40.06 64.6,39.44 64.26,39.44 63.35,39.36 62.01,39.2 60.34,38.81 59.33,38.58 58.42,38.27 57.33,37.88 56.33,37.41 55.32,36.87 54.24,36.25 53.24,35.55 52.32,34.69 51.39,33.76 50.56,32.67 49.72,31.5 49.05,30.18 48.47,28.7 48.05,27.07 47.88,26.21 47.72,25.28 47.63,24.35 47.55,23.33 47.55,22.32 47.55,21.23 47.63,20.07 47.72,18.9 47.88,17.73 48.05,16.41 48.39,15.09 48.64,13.77 49.48,10.81 50.47,7.7 51.73,4.43 53.31,0.85 52.65,0.62 51.14,4.2 49.81,7.54 48.8,10.65 47.97,13.61 47.63,15.01 47.38,16.33 47.22,17.58 47.05,18.82 46.88,20.07 46.88,21.23 46.8,22.32 46.88,23.33 46.97,24.42 47.05,25.36 47.22,26.29 47.38,27.22 47.8,28.86 48.47,30.41 49.14,31.81 49.97,33.06 50.81,34.15 51.81,35.16 52.82,36.01 53.82,36.79 54.91,37.49 55.99,38.03 57.08,38.5 58.16,38.89 59.16,39.2 60.17,39.44 61.92,39.83 63.27,39.98 64.18,40.06 64.6,40.06 64.6,39.44 "/>
    <polygon class="fil0" points="34.68,39.83 35.01,40.21 64.6,40.06 64.6,39.44 35.01,39.59 34.68,39.83 34.51,40.21 35.01,40.21 "/>
    <polygon class="fil0" points="52.65,0.62 52.65,0.62 34.68,39.83 35.35,40.06 53.31,0.85 "/>
    <path class="fil1" d="M25.16 44.26l-1.34 -0.55 -1.43 -0.46 -1.41 -0.47 -1.42 -0.39 -1.43 -0.39 -1.5 -0.31 -1.42 -0.23 -1.5 -0.16 -1.09 0 -1.09 0 -1.08 0.08 -1.01 0.15 -1.09 0.16 -0.99 0.23 -1.01 0.32 -1 0.38 -4.51 2.26 24.32 -0.62zm14.45 0.15l11.2 4.52 0.58 0.15 0.67 0.08 0.67 0.07 0.67 0 1.34 0 1.25 -0.23 1.76 -0.39 3.67 -1.63 1.59 -1.25 1.17 -1.63 -24.57 0.31zm-38.85 0.47l1.91 -1.63 1.93 -1.56 1 -0.78 1.08 -0.62 1.09 -0.62 1.09 -0.54 1.17 -0.39 1.08 -0.39 1.17 -0.32 1.18 -0.23 1.16 -0.15 1.18 -0.08 1.16 0 1.17 0.15 2.35 0.31 2.25 0.55 2.26 0.55 2.25 0.7 2.26 0.7 2.17 0.77 2.18 0.86 2.17 0.85 2.42 0.94 26.58 -0.63 0.16 0.08 0.17 0.16 0.08 0.15 -0.08 0.24 -2.34 1.78 -1.17 1.64 -3.35 2.72 -1.83 0.94 -0.84 0.31 -0.91 0.31 -0.93 0.23 -0.91 0.16 -0.92 0.15 -0.92 0 -1 0.08 -0.92 -0.08 -1.93 -0.15 -1.84 -0.24 -1.83 -0.38 -1.67 -0.39 -2.09 -0.63 -2.01 -0.7 -2.01 -0.77 -2 -0.79 -2.01 -0.92 -1.92 -0.87 -2 -0.85 -2.01 -0.85 -25.32 0.31 0 -0.08 0.09 0z"/>
    <polygon class="fil1" points="8.78,38.81 8.78,38.81 7.6,39.36 6.44,39.98 5.43,40.68 4.43,41.46 2.42,43.01 0.5,44.65 1,45.11 2.93,43.56 4.85,41.92 5.85,41.22 6.85,40.53 7.94,39.9 9.03,39.44 "/>
    <polygon class="fil1" points="18.22,37.41 18.22,37.41 16.96,37.26 15.8,37.26 14.54,37.34 13.38,37.49 12.2,37.72 11.03,38.03 9.86,38.42 8.78,38.81 9.03,39.44 10.11,38.97 11.2,38.66 12.37,38.35 13.54,38.11 14.62,37.95 15.8,37.88 16.96,37.95 18.13,38.03 "/>
    <polygon class="fil1" points="36.18,42.7 36.18,42.7 34.01,41.85 31.75,41.07 29.58,40.21 27.33,39.51 25.16,38.81 22.82,38.27 20.55,37.72 18.22,37.41 18.13,38.03 20.39,38.42 22.65,38.89 24.9,39.44 27.16,40.13 29.33,40.83 31.51,41.61 33.68,42.47 35.85,43.32 "/>
    <polygon class="fil1" points="13.62,41.61 13.62,41.61 15.13,41.77 16.55,42 18.05,42.31 19.47,42.7 20.89,43.09 22.31,43.56 23.65,44.03 25.07,44.57 25.32,44.03 23.9,43.48 22.48,42.94 21.06,42.47 19.64,42.08 18.22,41.69 16.71,41.38 15.21,41.15 13.71,40.99 "/>
    <polygon class="fil1" points="5.52,42.86 5.43,42.94 6.44,42.55 7.44,42.24 8.44,42 9.44,41.85 10.53,41.69 11.53,41.61 12.62,41.61 13.62,41.61 13.71,40.99 12.62,40.99 11.53,40.99 10.45,41.07 9.36,41.22 8.28,41.38 7.27,41.61 6.18,41.92 5.18,42.31 "/>
    <path class="fil1" d="M80.83 13.53c-2.02,0 -3.85,0.78 -5.49,2.35 -1.64,1.56 -3.02,4.18 -4.16,7.85 -0.89,2.88 -1.33,5.49 -1.33,7.81 0,2.09 0.49,3.69 1.46,4.78 0.98,1.1 2.31,1.65 3.99,1.65 1.97,0 3.76,-0.78 5.38,-2.32 1.62,-1.55 2.93,-4 3.94,-7.34 1,-3.35 1.51,-6.1 1.51,-8.27 0,-2.13 -0.48,-3.74 -1.44,-4.85 -0.96,-1.11 -2.24,-1.66 -3.86,-1.66zm-0.05 -1.73c3.39,0 6.11,0.99 8.16,2.98 2.05,1.99 3.07,4.58 3.07,7.77 0,2.72 -0.61,5.33 -1.82,7.84 -1.39,2.86 -3.44,5.12 -6.17,6.77 -2.73,1.66 -5.7,2.48 -8.91,2.48 -3.75,0 -6.55,-1.09 -8.4,-3.27 -1.86,-2.19 -2.78,-4.76 -2.78,-7.72 0,-2.32 0.61,-4.79 1.82,-7.42 1.22,-2.63 3.19,-4.86 5.91,-6.69 2.72,-1.83 5.76,-2.74 9.12,-2.74z"/>
    <path class="fil1" d="M104.86 37.44c1.36,0 2.65,-0.33 3.87,-1.01 1.22,-0.67 2.29,-1.64 3.21,-2.91 0.92,-1.27 1.72,-3.09 2.41,-5.47 0.69,-2.38 1.03,-4.65 1.03,-6.81 0,-2.34 -0.55,-4.16 -1.65,-5.45 -0.96,-1.12 -2.44,-1.68 -4.45,-1.68 -0.91,0 -1.52,0.1 -1.84,0.29 -0.32,0.2 -0.55,0.56 -0.69,1.07l-5.43 20.33c-0.05,0.18 -0.08,0.34 -0.08,0.49 0,0.37 0.11,0.64 0.32,0.81 0.27,0.23 0.67,0.34 1.2,0.34l2.1 0zm-7.26 -25.01l12.63 0c3.61,0 6.37,0.94 8.28,2.83 1.91,1.89 2.87,4.52 2.87,7.89 0,2.19 -0.42,4.34 -1.26,6.46 -0.83,2.12 -1.89,3.83 -3.19,5.15 -1.29,1.32 -2.94,2.38 -4.97,3.17 -2.02,0.79 -4.3,1.19 -6.82,1.19l-13.33 0 0.45 -1.68 1.48 0c1.01,0 1.67,-0.56 1.97,-1.69l5.37 -20.13c0.05,-0.14 0.08,-0.29 0.08,-0.45 0,-0.32 -0.14,-0.58 -0.42,-0.76 -0.28,-0.18 -0.8,-0.27 -1.59,-0.27l-2.07 0 0.52 -1.71z"/>
    <path class="fil1" d="M128.95 12.43l13.15 0 -0.43 1.71 -1.54 0c-0.71,0 -1.22,0.1 -1.52,0.3 -0.31,0.19 -0.53,0.52 -0.66,0.98l-5.44 20.37c-0.05,0.21 -0.08,0.39 -0.08,0.54 0,0.36 0.12,0.61 0.35,0.77 0.35,0.23 0.86,0.34 1.55,0.34l1.95 0 -0.43 1.68 -12.84 0 0.45 -1.68 1.45 0c1.03,0 1.66,-0.44 1.89,-1.33l5.42 -20.29c0.06,-0.23 0.09,-0.44 0.09,-0.65 0,-0.32 -0.12,-0.58 -0.37,-0.76 -0.25,-0.18 -0.68,-0.27 -1.29,-0.27l-2.09 0 0.39 -1.71z"/>
    <path class="fil1" d="M161.21 14.59l2.07 -1.64 1.57 0 -2.05 9.22 -1.59 0c-0.05,-2.17 -0.34,-3.85 -0.87,-5.03 -0.53,-1.18 -1.29,-2.1 -2.27,-2.75 -0.99,-0.64 -2.11,-0.97 -3.36,-0.97 -1.61,0 -2.91,0.44 -3.9,1.32 -0.98,0.87 -1.48,1.97 -1.48,3.28 0,1.01 0.31,1.8 0.92,2.38 0.62,0.57 2.47,1.43 5.54,2.58 2.05,0.77 3.48,1.48 4.3,2.11 0.82,0.63 1.45,1.41 1.88,2.34 0.44,0.94 0.66,1.99 0.66,3.17 0,1.67 -0.42,3.2 -1.26,4.59 -0.84,1.38 -2.06,2.47 -3.65,3.26 -1.58,0.8 -3.43,1.19 -5.54,1.19 -1.65,0 -3.09,-0.22 -4.34,-0.66 -1.24,-0.45 -2.49,-1.2 -3.72,-2.26l-1.5 1.66 -1.66 0 2.07 -9.58 1.61 0c0.01,2.21 0.31,3.94 0.89,5.19 0.59,1.24 1.45,2.2 2.59,2.88 1.14,0.68 2.48,1.02 3.99,1.02 1.81,0 3.27,-0.49 4.4,-1.48 1.14,-0.98 1.7,-2.17 1.7,-3.55 0,-1.14 -0.43,-2.06 -1.28,-2.75 -0.47,-0.38 -2.14,-1.14 -5,-2.29 -2.23,-0.87 -3.72,-1.6 -4.48,-2.17 -0.75,-0.57 -1.33,-1.29 -1.74,-2.15 -0.4,-0.86 -0.6,-1.89 -0.6,-3.08 0,-2.5 0.84,-4.56 2.53,-6.19 1.68,-1.62 3.86,-2.43 6.53,-2.43 1.33,0 2.56,0.21 3.68,0.65 1.12,0.43 2.24,1.15 3.36,2.14z"/>
    <path class="fil1" d="M186.53 14.59l2.07 -1.64 1.57 0 -2.05 9.22 -1.59 0c-0.05,-2.17 -0.34,-3.85 -0.87,-5.03 -0.53,-1.18 -1.28,-2.1 -2.27,-2.75 -0.99,-0.64 -2.11,-0.97 -3.36,-0.97 -1.61,0 -2.91,0.44 -3.9,1.32 -0.98,0.87 -1.48,1.97 -1.48,3.28 0,1.01 0.31,1.8 0.93,2.38 0.61,0.57 2.46,1.43 5.54,2.58 2.04,0.77 3.47,1.48 4.29,2.11 0.82,0.63 1.45,1.41 1.89,2.34 0.43,0.94 0.65,1.99 0.65,3.17 0,1.67 -0.42,3.2 -1.26,4.59 -0.84,1.38 -2.06,2.47 -3.64,3.26 -1.59,0.8 -3.44,1.19 -5.55,1.19 -1.64,0 -3.09,-0.22 -4.34,-0.66 -1.24,-0.45 -2.48,-1.2 -3.72,-2.26l-1.5 1.66 -1.66 0 2.07 -9.58 1.61 0c0.01,2.21 0.31,3.94 0.89,5.19 0.59,1.24 1.45,2.2 2.59,2.88 1.15,0.68 2.48,1.02 3.99,1.02 1.81,0 3.28,-0.49 4.41,-1.48 1.13,-0.98 1.69,-2.17 1.69,-3.55 0,-1.14 -0.42,-2.06 -1.28,-2.75 -0.47,-0.38 -2.13,-1.14 -5,-2.29 -2.22,-0.87 -3.72,-1.6 -4.47,-2.17 -0.76,-0.57 -1.34,-1.29 -1.75,-2.15 -0.4,-0.86 -0.6,-1.89 -0.6,-3.08 0,-2.5 0.84,-4.56 2.53,-6.19 1.68,-1.62 3.86,-2.43 6.53,-2.43 1.34,0 2.56,0.21 3.68,0.65 1.12,0.43 2.24,1.15 3.36,2.14z"/>
    <path class="fil1" d="M195.53 12.43l23.12 0 -1.96 8.66 -1.64 0c0.19,-1.05 0.28,-1.85 0.28,-2.39 0,-1.37 -0.43,-2.47 -1.3,-3.31 -0.86,-0.83 -1.96,-1.25 -3.3,-1.25l-4.08 0c-0.93,0 -1.55,0.51 -1.85,1.52l-2.36 8.88 1.39 0c1.57,0 2.83,-0.34 3.77,-1.02 0.94,-0.68 1.75,-1.88 2.43,-3.6l1.59 0 -3.22 12.09 -1.57 0c0.17,-1.01 0.26,-1.85 0.26,-2.53 0,-1.06 -0.33,-1.87 -0.97,-2.44 -0.64,-0.57 -1.53,-0.86 -2.65,-0.86l-1.47 0 -2.52 9.47c-0.05,0.22 -0.08,0.43 -0.08,0.65 0,0.37 0.13,0.66 0.41,0.85 0.27,0.2 0.76,0.29 1.45,0.29l2.79 0c2.49,0 4.59,-0.6 6.29,-1.81 1.71,-1.2 3.09,-3.11 4.15,-5.73l1.64 0 -2.87 9.22 -23.24 0 0.49 -1.68 1.37 0c0.96,0 1.57,-0.44 1.81,-1.33l5.44 -20.36c0.04,-0.19 0.07,-0.37 0.07,-0.54 0,-0.34 -0.12,-0.6 -0.36,-0.79 -0.23,-0.18 -0.62,-0.28 -1.16,-0.28l-2.6 0 0.45 -1.71z"/>
    <path class="fil1" d="M222.53 12.43l11.23 0 -0.41 1.71 -1.53 0c-0.64,0 -1.08,0.07 -1.31,0.21 -0.24,0.14 -0.35,0.3 -0.35,0.49 0,0.17 0.06,0.41 0.18,0.71l3.86 9.54 5.76 -7.7c0.45,-0.62 0.68,-1.19 0.68,-1.71 0,-0.45 -0.18,-0.8 -0.54,-1.07 -0.36,-0.26 -1.05,-0.42 -2.06,-0.47l0.47 -1.71 8.72 0 -0.47 1.71c-0.82,0.1 -1.47,0.29 -1.96,0.58 -0.49,0.29 -0.99,0.78 -1.51,1.46l-7.87 10.63 -2.48 9.12c-0.03,0.15 -0.05,0.3 -0.05,0.45 0,0.34 0.13,0.6 0.38,0.78 0.25,0.19 0.65,0.28 1.21,0.28l2.09 0 -0.43 1.68 -13.28 0 0.52 -1.68 1.93 0c1.07,0 1.73,-0.42 1.97,-1.28l2.38 -8.78 -4.84 -11.83c-0.23,-0.57 -0.48,-0.94 -0.75,-1.13 -0.27,-0.18 -0.67,-0.28 -1.22,-0.28l-0.7 0 0.38 -1.71z"/>
    <polygon class="fil1" points="38.55,44.26 38.64,43.64 36.3,42.7 35.96,43.32 38.39,44.26 "/>
    <polygon class="fil1" points="65.13,43.01 65.13,43.01 38.55,43.64 38.55,44.26 65.13,43.64 "/>
    <polygon class="fil1" points="65.8,43.48 65.8,43.4 65.46,43.09 65.13,43.01 65.13,43.64 65.13,43.56 "/>
    <polygon class="fil1" points="65.88,43.87 65.88,43.64 65.8,43.48 65.13,43.56 65.21,43.79 "/>
    <polygon class="fil1" points="65.63,44.18 65.8,44.03 65.88,43.87 65.21,43.64 65.13,43.79 "/>
    <polygon class="fil1" points="62.79,45.58 63.29,45.97 65.63,44.18 65.21,43.71 62.87,45.5 "/>
    <polygon class="fil1" points="62.12,47.6 62.2,47.53 63.38,45.97 62.79,45.58 61.62,47.22 "/>
    <polygon class="fil1" points="58.78,50.32 58.78,50.32 62.12,47.6 61.7,47.14 58.36,49.86 "/>
    <polygon class="fil1" points="56.94,51.26 56.94,51.26 58.78,50.32 58.44,49.78 56.6,50.71 "/>
    <polygon class="fil1" points="41.98,51.34 41.98,51.34 43.73,51.72 45.57,52.11 47.5,52.34 49.42,52.5 50.34,52.58 51.34,52.5 52.34,52.5 53.26,52.34 54.18,52.19 55.1,51.96 56.02,51.65 56.94,51.26 56.6,50.71 55.77,51.03 54.93,51.34 54.01,51.57 53.18,51.72 52.26,51.8 51.34,51.88 50.34,51.88 49.42,51.88 47.58,51.72 45.66,51.49 43.9,51.1 42.23,50.71 "/>
    <polygon class="fil1" points="26.1,44.96 26.02,44.96 27.94,45.73 29.95,46.67 31.95,47.53 33.88,48.38 35.88,49.23 37.88,50.01 39.97,50.71 41.98,51.34 42.23,50.71 40.14,50.09 38.14,49.39 36.13,48.61 34.21,47.84 32.2,46.98 30.28,46.05 28.27,45.19 26.27,44.33 26.1,44.33 "/>
    <polygon class="fil1" points="0.45,45.03 0.78,45.35 26.1,44.96 26.1,44.33 0.78,44.65 0.45,45.03 0.45,45.35 0.78,45.35 "/>
    <polygon class="fil1" points="1.2,44.96 0.45,44.96 0.45,45.03 "/>
    <polygon class="fil1" points="0.78,44.57 0.45,44.88 0.45,44.96 1.2,44.96 1.2,44.88 0.78,44.57 0.45,44.57 0.45,44.88 "/>
    <polygon class="fil1" points="1.11,45.11 0.87,44.57 0.78,44.57 0.78,45.19 0.87,45.19 "/>
    <polygon class="fil1" points="50.84,49.23 51.09,48.61 39.8,44.18 39.56,44.73 "/>
    <polygon class="fil1" points="56.02,48.69 56.02,48.69 54.85,48.93 53.51,48.93 52.85,48.93 52.18,48.84 51.59,48.77 51.09,48.61 50.84,49.23 51.42,49.39 52.09,49.47 52.76,49.55 53.51,49.62 54.85,49.55 56.18,49.39 56.18,49.31 "/>
    <polygon class="fil1" points="58.02,48.93 57.77,48.3 56.02,48.69 56.18,49.31 57.94,48.93 "/>
    <polygon class="fil1" points="61.79,47.22 61.37,46.67 57.69,48.38 58.02,48.93 61.7,47.29 "/>
    <polygon class="fil1" points="63.38,45.97 62.87,45.5 61.28,46.75 61.79,47.22 63.29,45.97 "/>
    <polygon class="fil1" points="64.29,43.79 64.04,43.87 62.79,45.58 63.38,45.97 64.63,44.26 64.29,43.79 64.63,44.26 64.96,43.79 "/>
    <polygon class="fil1" points="39.56,44.73 39.72,44.8 64.29,44.41 64.29,43.79 39.72,44.1 "/>
    <polygon class="fil1" points="0.95,45.19 1.11,45.19 5.63,42.86 5.3,42.31 0.78,44.57 "/>
    <polygon class="fil1" points="25.44,44.03 25.27,43.95 0.95,44.57 0.95,45.19 25.27,44.65 "/>
   </g>
   <polygon class="fil2" points="89.68,45.51 95.41,45.51 93.9,52.73 92.42,52.73 93.68,46.72 90.91,46.72 89.65,52.73 88.17,52.73 "/>
   <path id="1" class="fil2" d="M96.43 47.5l1.34 0 -0.11 0.53c0.29,-0.24 0.56,-0.41 0.81,-0.51 0.25,-0.1 0.52,-0.15 0.8,-0.15 0.55,0 0.99,0.19 1.33,0.56 0.33,0.38 0.5,0.95 0.5,1.7 0,0.94 -0.29,1.74 -0.87,2.39 -0.49,0.56 -1.08,0.84 -1.76,0.84 -0.69,0 -1.22,-0.28 -1.57,-0.84l-0.56 2.7 -1.41 0 1.5 -7.22zm0.85 3c0,0.41 0.1,0.73 0.3,0.96 0.2,0.22 0.44,0.34 0.71,0.34 0.23,0 0.46,-0.09 0.68,-0.26 0.22,-0.17 0.4,-0.45 0.54,-0.85 0.14,-0.39 0.22,-0.76 0.22,-1.1 0,-0.39 -0.1,-0.69 -0.29,-0.9 -0.19,-0.21 -0.43,-0.32 -0.72,-0.32 -0.27,0 -0.52,0.1 -0.74,0.29 -0.22,0.2 -0.39,0.48 -0.52,0.85 -0.12,0.38 -0.18,0.71 -0.18,0.99z"/>
   <path id="2" class="fil2" d="M101.76 50.56c0,-0.98 0.27,-1.75 0.82,-2.33 0.54,-0.57 1.26,-0.86 2.15,-0.86 0.77,0 1.37,0.21 1.8,0.64 0.43,0.42 0.65,0.99 0.65,1.72 0,0.84 -0.27,1.58 -0.81,2.2 -0.54,0.62 -1.27,0.93 -2.17,0.93 -0.5,0 -0.93,-0.1 -1.31,-0.3 -0.38,-0.2 -0.66,-0.48 -0.85,-0.84 -0.19,-0.36 -0.28,-0.75 -0.28,-1.16zm4.02 -1.02c0,-0.34 -0.1,-0.61 -0.29,-0.81 -0.2,-0.2 -0.45,-0.31 -0.76,-0.31 -0.3,0 -0.57,0.1 -0.81,0.29 -0.23,0.19 -0.41,0.47 -0.54,0.83 -0.14,0.36 -0.2,0.69 -0.2,1 0,0.38 0.1,0.67 0.3,0.9 0.21,0.22 0.46,0.33 0.77,0.33 0.38,0 0.71,-0.17 0.97,-0.5 0.37,-0.48 0.56,-1.05 0.56,-1.73z"/>
   <path id="3" class="fil2" d="M108.84 47.5l1.42 0 -0.7 3.1c-0.09,0.37 -0.13,0.6 -0.13,0.7 0,0.15 0.05,0.28 0.15,0.39 0.1,0.11 0.23,0.16 0.39,0.16 0.11,0 0.22,-0.03 0.33,-0.08 0.11,-0.04 0.22,-0.12 0.34,-0.22 0.12,-0.1 0.22,-0.21 0.31,-0.34 0.09,-0.13 0.18,-0.3 0.26,-0.51 0.06,-0.16 0.12,-0.4 0.19,-0.71l0.57 -2.49 1.41 0 -1.19 5.23 -1.32 0 0.14 -0.68c-0.53,0.54 -1.11,0.81 -1.73,0.81 -0.4,0 -0.71,-0.13 -0.93,-0.37 -0.23,-0.25 -0.34,-0.58 -0.34,-1 0,-0.18 0.06,-0.54 0.18,-1.08l0.65 -2.91z"/>
   <path id="4" class="fil2" d="M115.51 48.91l-1.16 -0.2c0.36,-0.88 1.08,-1.32 2.17,-1.32 0.62,0 1.09,0.13 1.4,0.39 0.3,0.26 0.46,0.6 0.46,1.01 0,0.34 -0.12,0.62 -0.35,0.85 -0.23,0.23 -0.48,0.38 -0.78,0.44 0.28,0.06 0.5,0.2 0.67,0.42 0.18,0.22 0.26,0.47 0.26,0.74 0,0.42 -0.18,0.79 -0.56,1.12 -0.38,0.33 -0.98,0.5 -1.81,0.5 -1.23,0 -1.97,-0.49 -2.22,-1.46l1.32 -0.14c0.17,0.49 0.5,0.74 1,0.74 0.25,0 0.45,-0.07 0.61,-0.22 0.16,-0.15 0.23,-0.33 0.23,-0.55 0,-0.24 -0.07,-0.41 -0.23,-0.52 -0.16,-0.1 -0.42,-0.15 -0.78,-0.15l0.12 -0.86c0.33,0 0.56,-0.01 0.71,-0.04 0.14,-0.03 0.26,-0.11 0.37,-0.24 0.11,-0.13 0.17,-0.29 0.17,-0.47 0,-0.18 -0.07,-0.34 -0.21,-0.46 -0.13,-0.12 -0.3,-0.19 -0.5,-0.19 -0.36,0 -0.66,0.2 -0.89,0.61z"/>
   <path id="5" class="fil2" d="M123.13 50.1c0.32,0.1 0.56,0.25 0.73,0.44 0.16,0.19 0.24,0.43 0.24,0.71 0,0.43 -0.2,0.81 -0.59,1.13 -0.4,0.32 -1.02,0.48 -1.86,0.48 -0.78,0 -1.39,-0.21 -1.8,-0.61 -0.42,-0.4 -0.62,-0.96 -0.62,-1.68 0,-0.88 0.26,-1.64 0.8,-2.26 0.54,-0.61 1.32,-0.92 2.35,-0.92 0.71,0 1.2,0.14 1.49,0.42 0.28,0.28 0.42,0.6 0.42,0.97 0,0.32 -0.09,0.59 -0.29,0.81 -0.19,0.22 -0.48,0.39 -0.87,0.51zm-2.51 -0.4l1.08 0c0.52,0 0.88,-0.06 1.06,-0.18 0.18,-0.13 0.27,-0.32 0.27,-0.57 0,-0.18 -0.06,-0.32 -0.2,-0.41 -0.13,-0.09 -0.33,-0.14 -0.6,-0.14 -0.45,0 -0.81,0.11 -1.08,0.33 -0.27,0.21 -0.45,0.54 -0.53,0.97zm-0.07 0.84c0,0.42 0.09,0.74 0.27,0.96 0.18,0.22 0.51,0.33 1,0.33 0.31,0 0.55,-0.05 0.7,-0.15 0.15,-0.1 0.23,-0.25 0.23,-0.44 0,-0.22 -0.09,-0.39 -0.27,-0.51 -0.18,-0.13 -0.39,-0.19 -0.61,-0.19l-1.32 0z"/>
   <path id="6" class="fil2" d="M125.04 50.56c0,-0.98 0.27,-1.75 0.82,-2.33 0.54,-0.57 1.26,-0.86 2.15,-0.86 0.77,0 1.37,0.21 1.8,0.64 0.43,0.42 0.65,0.99 0.65,1.72 0,0.84 -0.27,1.58 -0.81,2.2 -0.54,0.62 -1.27,0.93 -2.17,0.93 -0.49,0 -0.93,-0.1 -1.31,-0.3 -0.38,-0.2 -0.66,-0.48 -0.85,-0.84 -0.19,-0.36 -0.28,-0.75 -0.28,-1.16zm4.02 -1.02c0,-0.34 -0.1,-0.61 -0.29,-0.81 -0.2,-0.2 -0.45,-0.31 -0.76,-0.31 -0.3,0 -0.57,0.1 -0.8,0.29 -0.24,0.19 -0.42,0.47 -0.55,0.83 -0.13,0.36 -0.2,0.69 -0.2,1 0,0.38 0.1,0.67 0.3,0.9 0.21,0.22 0.46,0.33 0.77,0.33 0.39,0 0.71,-0.17 0.97,-0.5 0.37,-0.48 0.56,-1.05 0.56,-1.73z"/>
   <path id="7" class="fil2" d="M133.4 46.22l0.25 -1.03 0.45 0c1.12,0 1.87,0.21 2.23,0.64 0.37,0.43 0.55,1.11 0.55,2.04 0,1.43 -0.26,2.62 -0.78,3.56 -0.52,0.95 -1.36,1.43 -2.51,1.43 -0.7,0 -1.28,-0.2 -1.73,-0.58 -0.45,-0.39 -0.68,-0.95 -0.68,-1.68 0,-0.87 0.29,-1.62 0.86,-2.26 0.57,-0.64 1.28,-0.95 2.13,-0.95 0.28,0 0.54,0.04 0.78,0.13 0.24,0.09 0.47,0.23 0.67,0.41 0.01,-0.2 0.02,-0.35 0.02,-0.47 0,-0.48 -0.12,-0.81 -0.35,-0.98 -0.23,-0.18 -0.64,-0.26 -1.23,-0.26l-0.66 0zm0.98 2.2c-0.55,0 -0.98,0.25 -1.3,0.73 -0.32,0.49 -0.48,0.98 -0.48,1.5 0,0.35 0.1,0.63 0.29,0.82 0.19,0.19 0.43,0.29 0.73,0.29 0.52,0 0.94,-0.27 1.26,-0.81 0.32,-0.54 0.48,-1.07 0.48,-1.59 0,-0.3 -0.09,-0.53 -0.27,-0.69 -0.18,-0.17 -0.41,-0.25 -0.71,-0.25z"/>
   <path id="8" class="fil2" d="M140.74 50.76l1.37 0.22c-0.22,0.61 -0.56,1.08 -1,1.4 -0.44,0.32 -0.95,0.48 -1.54,0.48 -0.66,0 -1.19,-0.2 -1.58,-0.6 -0.39,-0.4 -0.58,-0.95 -0.58,-1.65 0,-0.56 0.12,-1.1 0.35,-1.61 0.24,-0.51 0.59,-0.91 1.07,-1.2 0.47,-0.29 1,-0.43 1.56,-0.43 0.62,0 1.11,0.16 1.48,0.48 0.36,0.32 0.57,0.75 0.62,1.28l-1.34 0.14c-0.04,-0.29 -0.13,-0.51 -0.27,-0.65 -0.15,-0.14 -0.34,-0.21 -0.57,-0.21 -0.28,0 -0.53,0.11 -0.77,0.31 -0.23,0.2 -0.42,0.51 -0.54,0.92 -0.13,0.4 -0.19,0.78 -0.19,1.14 0,0.31 0.07,0.55 0.22,0.72 0.16,0.16 0.34,0.25 0.57,0.25 0.23,0 0.44,-0.08 0.65,-0.25 0.21,-0.16 0.38,-0.41 0.49,-0.74z"/>
   <path id="9" class="fil2" d="M143.86 47.5l1.34 0 -0.12 0.62c0.52,-0.5 1.06,-0.75 1.63,-0.75 0.4,0 0.7,0.08 0.92,0.24 0.21,0.17 0.35,0.39 0.41,0.68 0.18,-0.26 0.44,-0.48 0.78,-0.66 0.33,-0.17 0.69,-0.26 1.05,-0.26 0.42,0 0.74,0.11 0.98,0.34 0.23,0.22 0.35,0.52 0.35,0.9 -0.01,0.18 -0.05,0.49 -0.15,0.93l-0.69 3.19 -1.41 0 0.68 -3.19c0.09,-0.4 0.13,-0.63 0.14,-0.68 0,-0.15 -0.05,-0.27 -0.14,-0.36 -0.08,-0.08 -0.22,-0.13 -0.39,-0.13 -0.36,0 -0.67,0.19 -0.95,0.56 -0.21,0.27 -0.38,0.75 -0.52,1.43l-0.5 2.37 -1.41 0 0.66 -3.17c0.08,-0.37 0.12,-0.6 0.12,-0.71 0,-0.14 -0.05,-0.25 -0.14,-0.34 -0.1,-0.09 -0.23,-0.14 -0.39,-0.14 -0.16,0 -0.32,0.05 -0.48,0.14 -0.16,0.1 -0.31,0.22 -0.43,0.38 -0.12,0.17 -0.23,0.37 -0.32,0.63 -0.04,0.12 -0.11,0.38 -0.2,0.8l-0.5 2.41 -1.41 0 1.09 -5.23z"/>
   <path id="10" class="fil2" d="M155.9 50.1c0.32,0.1 0.57,0.25 0.73,0.44 0.16,0.19 0.24,0.43 0.24,0.71 0,0.43 -0.19,0.81 -0.59,1.13 -0.4,0.32 -1.01,0.48 -1.86,0.48 -0.78,0 -1.38,-0.21 -1.8,-0.61 -0.41,-0.4 -0.62,-0.96 -0.62,-1.68 0,-0.88 0.27,-1.64 0.8,-2.26 0.54,-0.61 1.32,-0.92 2.35,-0.92 0.71,0 1.21,0.14 1.49,0.42 0.28,0.28 0.43,0.6 0.43,0.97 0,0.32 -0.1,0.59 -0.3,0.81 -0.19,0.22 -0.48,0.39 -0.87,0.51zm-2.51 -0.4l1.08 0c0.53,0 0.88,-0.06 1.06,-0.18 0.19,-0.13 0.28,-0.32 0.28,-0.57 0,-0.18 -0.07,-0.32 -0.2,-0.41 -0.14,-0.09 -0.34,-0.14 -0.61,-0.14 -0.45,0 -0.81,0.11 -1.08,0.33 -0.27,0.21 -0.44,0.54 -0.53,0.97zm-0.07 0.84c0,0.42 0.1,0.74 0.27,0.96 0.18,0.22 0.52,0.33 1.01,0.33 0.31,0 0.54,-0.05 0.69,-0.15 0.16,-0.1 0.23,-0.25 0.23,-0.44 0,-0.22 -0.09,-0.39 -0.27,-0.51 -0.18,-0.13 -0.38,-0.19 -0.61,-0.19l-1.32 0z"/>
   <path id="11" class="fil2" d="M157.81 50.56c0,-0.98 0.27,-1.75 0.82,-2.33 0.55,-0.57 1.26,-0.86 2.15,-0.86 0.77,0 1.37,0.21 1.8,0.64 0.43,0.42 0.65,0.99 0.65,1.72 0,0.84 -0.27,1.58 -0.81,2.2 -0.54,0.62 -1.26,0.93 -2.17,0.93 -0.49,0 -0.93,-0.1 -1.31,-0.3 -0.38,-0.2 -0.66,-0.48 -0.85,-0.84 -0.18,-0.36 -0.28,-0.75 -0.28,-1.16zm4.02 -1.02c0,-0.34 -0.1,-0.61 -0.29,-0.81 -0.2,-0.2 -0.45,-0.31 -0.75,-0.31 -0.31,0 -0.58,0.1 -0.81,0.29 -0.24,0.19 -0.42,0.47 -0.55,0.83 -0.13,0.36 -0.2,0.69 -0.2,1 0,0.38 0.1,0.67 0.31,0.9 0.2,0.22 0.45,0.33 0.76,0.33 0.39,0 0.71,-0.17 0.97,-0.5 0.37,-0.48 0.56,-1.05 0.56,-1.73z"/>
   <path id="12" class="fil2" d="M168.55 45.51l4.94 0 -1.51 7.22 -1.48 0 1.26 -6.01 -1.98 0 -0.81 3.82c-0.09,0.45 -0.22,0.86 -0.38,1.22 -0.16,0.37 -0.37,0.64 -0.62,0.82 -0.26,0.17 -0.6,0.26 -1.02,0.26 -0.28,0 -0.61,-0.04 -0.99,-0.11l0.26 -1.23c0.26,0.04 0.42,0.06 0.47,0.06 0.41,0 0.68,-0.36 0.81,-1.07 0.01,-0.04 0.02,-0.08 0.03,-0.12l1.02 -4.86z"/>
   <path id="13" class="fil2" d="M175 45.51l1.47 0 -0.64 3.07c0.28,0 0.5,-0.06 0.65,-0.18 0.16,-0.12 0.4,-0.45 0.73,-1.02 0.34,-0.59 0.61,-1 0.8,-1.22 0.19,-0.23 0.4,-0.39 0.64,-0.49 0.24,-0.11 0.6,-0.16 1.08,-0.16l0.4 0 -0.33 1.08 -0.24 0c-0.18,0 -0.32,0.03 -0.41,0.09 -0.1,0.06 -0.21,0.21 -0.34,0.44 -0.39,0.71 -0.7,1.2 -0.93,1.45 -0.23,0.25 -0.49,0.4 -0.76,0.47 0.49,0.16 0.82,0.6 0.99,1.3 0.01,0.04 0.01,0.08 0.02,0.12l0.65 2.27 -1.53 0 -0.6 -2.24c-0.01,-0.02 -0.07,-0.18 -0.17,-0.47 -0.14,-0.28 -0.43,-0.42 -0.87,-0.43l-0.65 3.14 -1.47 0 1.51 -7.22z"/>
   <polygon id="14" class="fil2" points="183.83,52.73 182.42,52.73 182.16,46.7 181.01,52.73 179.68,52.73 181.18,45.51 183.3,45.51 183.52,50.47 185.79,45.51 187.92,45.51 186.61,52.73 185.26,52.73 186.52,46.74 "/>
   <path id="15" class="fil2" d="M194.39 50.76l1.37 0.22c-0.23,0.61 -0.56,1.08 -1,1.4 -0.44,0.32 -0.96,0.48 -1.54,0.48 -0.66,0 -1.19,-0.2 -1.58,-0.6 -0.39,-0.4 -0.59,-0.95 -0.59,-1.65 0,-0.56 0.12,-1.1 0.36,-1.61 0.23,-0.51 0.59,-0.91 1.07,-1.2 0.47,-0.29 0.99,-0.43 1.56,-0.43 0.61,0 1.11,0.16 1.47,0.48 0.37,0.32 0.58,0.75 0.62,1.28l-1.34 0.14c-0.03,-0.29 -0.12,-0.51 -0.27,-0.65 -0.14,-0.14 -0.33,-0.21 -0.57,-0.21 -0.27,0 -0.53,0.11 -0.76,0.31 -0.24,0.2 -0.42,0.51 -0.55,0.92 -0.12,0.4 -0.19,0.78 -0.19,1.14 0,0.31 0.08,0.55 0.23,0.72 0.15,0.16 0.34,0.25 0.57,0.25 0.22,0 0.44,-0.08 0.65,-0.25 0.21,-0.16 0.37,-0.41 0.49,-0.74z"/>
   <path id="16" class="fil2" d="M200.05 48.6l0.26 -1.26c1.22,-0.53 2.17,-1.15 2.83,-1.86l0.87 0 -1.52 7.25 -1.43 0 1.04 -4.99c-0.29,0.19 -0.63,0.36 -1.02,0.52 -0.38,0.16 -0.73,0.27 -1.03,0.34z"/>
   <path id="17" class="fil2" d="M205.09 51.07l1.32 -0.11c0.02,0.28 0.09,0.48 0.2,0.6 0.11,0.11 0.26,0.17 0.45,0.17 0.24,0 0.45,-0.1 0.64,-0.28 0.27,-0.27 0.48,-0.71 0.64,-1.32 -0.31,0.2 -0.63,0.3 -0.97,0.3 -0.56,0 -1.02,-0.19 -1.38,-0.57 -0.36,-0.38 -0.54,-0.9 -0.54,-1.56 0,-0.73 0.23,-1.39 0.7,-1.96 0.46,-0.57 1.07,-0.86 1.84,-0.86 0.67,0 1.19,0.25 1.55,0.74 0.35,0.49 0.53,1.16 0.53,2 0,1.3 -0.28,2.39 -0.86,3.29 -0.57,0.9 -1.32,1.35 -2.26,1.35 -0.54,0 -0.98,-0.16 -1.31,-0.47 -0.33,-0.32 -0.51,-0.76 -0.55,-1.32zm3.62 -3.34c0,-0.39 -0.07,-0.67 -0.22,-0.85 -0.15,-0.18 -0.34,-0.27 -0.56,-0.27 -0.27,0 -0.51,0.13 -0.7,0.39 -0.27,0.34 -0.4,0.81 -0.4,1.4 0,0.37 0.07,0.65 0.22,0.83 0.15,0.18 0.33,0.27 0.54,0.27 0.18,0 0.36,-0.07 0.54,-0.21 0.18,-0.14 0.33,-0.35 0.43,-0.65 0.1,-0.3 0.15,-0.61 0.15,-0.91z"/>
   <path id="18" class="fil2" d="M210.69 51.07l1.32 -0.11c0.03,0.28 0.09,0.48 0.2,0.6 0.12,0.11 0.26,0.17 0.45,0.17 0.24,0 0.45,-0.1 0.64,-0.28 0.27,-0.27 0.48,-0.71 0.64,-1.32 -0.3,0.2 -0.63,0.3 -0.97,0.3 -0.55,0 -1.01,-0.19 -1.37,-0.57 -0.37,-0.38 -0.55,-0.9 -0.55,-1.56 0,-0.73 0.23,-1.39 0.7,-1.96 0.46,-0.57 1.07,-0.86 1.84,-0.86 0.67,0 1.19,0.25 1.55,0.74 0.36,0.49 0.54,1.16 0.54,2 0,1.3 -0.29,2.39 -0.86,3.29 -0.58,0.9 -1.33,1.35 -2.26,1.35 -0.55,0 -0.99,-0.16 -1.32,-0.47 -0.33,-0.32 -0.51,-0.76 -0.55,-1.32zm3.63 -3.34c0,-0.39 -0.08,-0.67 -0.23,-0.85 -0.15,-0.18 -0.33,-0.27 -0.56,-0.27 -0.27,0 -0.5,0.13 -0.7,0.39 -0.26,0.34 -0.4,0.81 -0.4,1.4 0,0.37 0.08,0.65 0.22,0.83 0.15,0.18 0.33,0.27 0.54,0.27 0.18,0 0.36,-0.07 0.54,-0.21 0.19,-0.14 0.33,-0.35 0.43,-0.65 0.1,-0.3 0.16,-0.61 0.16,-0.91z"/>
   <path id="19" class="fil2" d="M217.82 48.75c-0.25,-0.16 -0.44,-0.36 -0.56,-0.57 -0.13,-0.22 -0.19,-0.46 -0.19,-0.73 0,-0.31 0.09,-0.62 0.26,-0.94 0.18,-0.32 0.45,-0.57 0.8,-0.75 0.35,-0.19 0.75,-0.28 1.19,-0.28 0.65,0 1.15,0.17 1.51,0.5 0.36,0.34 0.54,0.76 0.54,1.27 0,0.36 -0.1,0.68 -0.3,0.95 -0.21,0.26 -0.51,0.48 -0.92,0.66 0.3,0.18 0.51,0.4 0.66,0.66 0.14,0.26 0.22,0.55 0.22,0.88 0,0.55 -0.18,1.04 -0.52,1.49 -0.51,0.64 -1.2,0.97 -2.07,0.97 -0.64,0 -1.15,-0.19 -1.54,-0.57 -0.38,-0.37 -0.58,-0.85 -0.58,-1.43 0,-0.49 0.14,-0.92 0.41,-1.3 0.26,-0.38 0.63,-0.65 1.09,-0.81zm0.54 -1.21c0,0.23 0.07,0.41 0.2,0.55 0.14,0.14 0.32,0.21 0.54,0.21 0.26,0 0.48,-0.09 0.67,-0.29 0.19,-0.19 0.29,-0.41 0.29,-0.67 0,-0.23 -0.07,-0.42 -0.21,-0.56 -0.14,-0.15 -0.32,-0.22 -0.55,-0.22 -0.25,0 -0.48,0.1 -0.66,0.29 -0.19,0.19 -0.28,0.42 -0.28,0.69zm-0.63 3.34c0,0.27 0.08,0.48 0.22,0.64 0.15,0.15 0.34,0.23 0.58,0.23 0.36,0 0.64,-0.16 0.84,-0.49 0.2,-0.32 0.3,-0.67 0.3,-1.05 0,-0.24 -0.08,-0.44 -0.23,-0.59 -0.15,-0.16 -0.35,-0.24 -0.58,-0.24 -0.3,0 -0.56,0.14 -0.79,0.41 -0.22,0.27 -0.34,0.64 -0.34,1.09z"/>
   <path id="20" class="fil2" d="M226.31 48.99l-1.24 -0.22c0.29,-0.92 0.96,-1.38 2.02,-1.38 0.78,0 1.33,0.14 1.67,0.43 0.33,0.3 0.5,0.65 0.5,1.05 0,0.44 -0.16,0.78 -0.47,1.02 -0.31,0.24 -0.89,0.46 -1.75,0.66 -0.59,0.14 -0.95,0.26 -1.11,0.35 -0.16,0.08 -0.24,0.22 -0.24,0.4 0,0.16 0.08,0.29 0.24,0.39 0.17,0.11 0.38,0.16 0.65,0.16 0.63,0 1.02,-0.25 1.17,-0.76l1.33 0.22c-0.15,0.52 -0.43,0.91 -0.84,1.17 -0.41,0.25 -0.99,0.38 -1.74,0.38 -0.72,0 -1.25,-0.17 -1.59,-0.49 -0.35,-0.32 -0.52,-0.69 -0.52,-1.1 0,-0.27 0.07,-0.51 0.22,-0.72 0.14,-0.21 0.33,-0.38 0.57,-0.49 0.24,-0.12 0.68,-0.26 1.33,-0.42 0.68,-0.17 1.1,-0.3 1.25,-0.38 0.15,-0.08 0.23,-0.23 0.23,-0.43 0,-0.15 -0.06,-0.26 -0.19,-0.33 -0.12,-0.07 -0.3,-0.11 -0.54,-0.11 -0.51,0 -0.82,0.2 -0.95,0.6z"/>
   <path id="21" class="fil2" d="M229.8 50.56c0,-0.98 0.27,-1.75 0.82,-2.33 0.54,-0.57 1.26,-0.86 2.15,-0.86 0.77,0 1.37,0.21 1.8,0.64 0.43,0.42 0.65,0.99 0.65,1.72 0,0.84 -0.27,1.58 -0.81,2.2 -0.54,0.62 -1.27,0.93 -2.17,0.93 -0.5,0 -0.93,-0.1 -1.31,-0.3 -0.38,-0.2 -0.66,-0.48 -0.85,-0.84 -0.19,-0.36 -0.28,-0.75 -0.28,-1.16zm4.02 -1.02c0,-0.34 -0.1,-0.61 -0.29,-0.81 -0.2,-0.2 -0.45,-0.31 -0.76,-0.31 -0.3,0 -0.57,0.1 -0.81,0.29 -0.23,0.19 -0.41,0.47 -0.54,0.83 -0.14,0.36 -0.2,0.69 -0.2,1 0,0.38 0.1,0.67 0.3,0.9 0.21,0.22 0.46,0.33 0.77,0.33 0.38,0 0.71,-0.17 0.97,-0.5 0.37,-0.48 0.56,-1.05 0.56,-1.73z"/>
   <path id="22" class="fil2" d="M238.16 46.22l0.25 -1.03 0.45 0c1.12,0 1.87,0.21 2.23,0.64 0.37,0.43 0.55,1.11 0.55,2.04 0,1.43 -0.26,2.62 -0.78,3.56 -0.52,0.95 -1.36,1.43 -2.51,1.43 -0.7,0 -1.28,-0.2 -1.73,-0.58 -0.45,-0.39 -0.68,-0.95 -0.68,-1.68 0,-0.87 0.29,-1.62 0.86,-2.26 0.57,-0.64 1.28,-0.95 2.13,-0.95 0.28,0 0.54,0.04 0.78,0.13 0.24,0.09 0.47,0.23 0.67,0.41 0.01,-0.2 0.02,-0.35 0.02,-0.47 0,-0.48 -0.12,-0.81 -0.35,-0.98 -0.23,-0.18 -0.64,-0.26 -1.23,-0.26l-0.66 0zm0.98 2.2c-0.55,0 -0.98,0.25 -1.3,0.73 -0.32,0.49 -0.48,0.98 -0.48,1.5 0,0.35 0.1,0.63 0.29,0.82 0.19,0.19 0.43,0.29 0.73,0.29 0.52,0 0.94,-0.27 1.26,-0.81 0.32,-0.54 0.48,-1.07 0.48,-1.59 0,-0.3 -0.09,-0.53 -0.27,-0.69 -0.18,-0.17 -0.41,-0.25 -0.71,-0.25z"/>
   <path id="23" class="fil2" d="M243.96 48.96l-1.38 -0.12c0.16,-0.46 0.43,-0.82 0.83,-1.08 0.39,-0.26 0.91,-0.39 1.56,-0.39 0.67,0 1.17,0.13 1.49,0.4 0.32,0.27 0.48,0.61 0.48,1 0,0.15 -0.01,0.32 -0.04,0.5 -0.03,0.18 -0.12,0.64 -0.29,1.4 -0.14,0.62 -0.21,1.06 -0.21,1.31 0,0.22 0.04,0.47 0.12,0.75l-1.38 0c-0.05,-0.19 -0.09,-0.39 -0.1,-0.6 -0.21,0.23 -0.45,0.41 -0.71,0.54 -0.27,0.12 -0.54,0.19 -0.82,0.19 -0.43,0 -0.79,-0.15 -1.07,-0.43 -0.28,-0.29 -0.42,-0.65 -0.42,-1.1 0,-0.5 0.15,-0.9 0.46,-1.2 0.31,-0.3 0.87,-0.48 1.66,-0.55 0.68,-0.05 1.13,-0.12 1.35,-0.2 0.06,-0.2 0.09,-0.35 0.09,-0.47 0,-0.16 -0.06,-0.28 -0.18,-0.38 -0.12,-0.11 -0.3,-0.16 -0.54,-0.16 -0.25,0 -0.45,0.05 -0.6,0.16 -0.15,0.1 -0.25,0.24 -0.3,0.43zm1.35 1.32c-0.09,0.02 -0.2,0.04 -0.34,0.06 -0.71,0.09 -1.17,0.21 -1.39,0.38 -0.16,0.12 -0.23,0.28 -0.23,0.48 0,0.17 0.06,0.31 0.18,0.43 0.11,0.11 0.27,0.17 0.46,0.17 0.22,0 0.42,-0.05 0.6,-0.16 0.19,-0.1 0.34,-0.24 0.43,-0.4 0.09,-0.17 0.17,-0.42 0.25,-0.77l0.04 -0.19z"/>
  </g>
 </g>
</svg>
